<svg fill="#000000" height="512pt" viewBox="-51 0 511 512" width="512pt" xmlns="http://www.w3.org/2000/svg"><path d="m342.496094 62.242188v-23.84375c0-30.308594-85.820313-38.398438-136.53125-38.398438-50.714844 0-136.535156 8.089844-136.535156 38.398438v24.425781c-18.914063 9.113281-76.894532 40.246093-68.011719 75.777343 1.820312 7.472657 6.871093 13.746094 13.78125 17.125 12.132812 6.183594 30.472656 5.03125 47.625 1.695313-2.5625 7.652344-5.671875 15.105469-9.308594 22.3125-6.421875 16.117187-9.710937 33.3125-9.6875 50.664063v230.402343c.007813 2.332031.972656 4.554688 2.675781 6.152344 14.628906 30.882813 91.527344 45.046875 159.460938 45.046875 67.679687 0 144.328125-14.070312 159.492187-45.070312 1.679688-1.59375 2.636719-3.808594 2.640625-6.128907v-230.402343c.019532-17.359376-3.269531-34.5625-9.703125-50.6875-3.726562-7.394532-6.90625-15.050782-9.507812-22.914063 17.214843 3.371094 35.65625 4.558594 47.839843-1.652344 6.910157-3.375 11.960938-9.652343 13.78125-17.128906 8.882813-35.53125-49.097656-66.660156-68.011718-75.773437zm-256 10.046874v-13.59375c27.621094 13.851563 82.738281 18.105469 119.46875 18.105469 36.726562 0 91.84375-4.253906 119.464844-18.105469v13.550782c-3.214844 7.589844-46.796876 21.621094-119.464844 21.621094-72.515625 0-116.089844-13.976563-119.46875-21.578126zm119.46875-55.222656c71.808594 0 115.210937 13.683594 119.347656 21.332032-4.136719 7.652343-47.539062 21.335937-119.347656 21.335937-72.730469 0-116.296875-14.035156-119.46875-20.90625v-.144531c3.171875-7.582032 46.738281-21.617188 119.46875-21.617188zm137.175781 170.300782c5.214844 13.746093 7.890625 28.328124 7.890625 43.03125v226.136718c-.019531.613282-.101562 1.222656-.238281 1.824219-4.589844 15.332031-57.472657 36.574219-144.828125 36.574219-87.394532 0-140.203125-21.226563-144.777344-36.695313-.179688-.550781-.28125-1.125-.292969-1.703125v-226.125c0-14.699218 2.667969-29.273437 7.878907-43.019531 5.609374-11.035156 10.042968-22.636719 13.226562-34.601563 1.828125-.527343 3.699219-1.050781 5.390625-1.574218-1.535156 6.308594-1.097656 12.933594 1.253906 18.984375 5.679688 13.984375 21.828125 22.734375 47.992188 26 3.320312.421875 6.667969.636719 10.015625.644531 24.25-.101562 46.738281-12.6875 59.507812-33.300781 12.8125 20.296875 35.109375 32.636719 59.109375 32.714843 3.347657-.003906 6.695313-.21875 10.015625-.640624 26.164063-3.265626 42.3125-12.015626 47.992188-26 2.351562-6.050782 2.789062-12.675782 1.253906-18.984376 1.636719.503907 3.453125 1.011719 5.21875 1.519532 3.191406 12.183594 7.683594 23.988281 13.390625 35.214844zm50.8125-53.480469c-.621094 2.691406-2.46875 4.933593-4.988281 6.058593-15.210938 7.785157-55.566406-3.179687-77.433594-11.914062-3.597656-1.441406-7.714844-.273438-10.023438 2.839844-2.308593 3.113281-2.230468 7.390625.195313 10.417968.09375.117188 9.554687 12.574219 5.765625 21.90625-3.089844 7.609376-15.273438 13.117188-34.296875 15.492188-43.859375 5.367188-58.539063-35.25-59.132813-36.957031-.726562-2.148438-2.277343-3.917969-4.3125-4.914063-2.035156-1-4.386718-1.144531-6.527343-.402344-2.707031.964844-4.730469 3.242188-5.371094 6.042969-8.511719 24.699219-33.160156 40.054688-59.078125 36.816407-18.988281-2.375-31.160156-7.859376-34.28125-15.453126-3.84375-9.355468 5.675781-21.855468 5.75-21.949218 2.425781-3.023438 2.503906-7.304688.195312-10.417969-2.308593-3.113281-6.425781-4.28125-10.023437-2.839844-21.867187 8.742188-62.222656 19.699219-77.433594 11.917969-2.519531-1.128906-4.363281-3.371094-4.988281-6.058594-4.472656-17.894531 29.777344-41.289062 53.792969-53.726562 14.027343 23.585937 88.414062 30.1875 134.203125 30.1875 46.074218 0 121.109375-6.683594 134.457031-30.636719 24.003906 12.46875 57.988281 35.757813 53.53125 53.589844zm0 0"/><path d="m274.230469 273.066406h-136.535157c-14.132812.015625-25.582031 11.46875-25.597656 25.601563v76.796875c.015625 14.132812 11.464844 25.585937 25.597656 25.601562h136.535157c14.132812-.015625 25.582031-11.46875 25.597656-25.601562v-76.796875c-.015625-14.132813-11.464844-25.585938-25.597656-25.601563zm8.53125 102.398438c-.003907 4.714844-3.820313 8.53125-8.53125 8.535156h-136.535157c-4.710937-.003906-8.527343-3.820312-8.53125-8.535156v-76.796875c.003907-4.710938 3.820313-8.53125 8.53125-8.535157h136.535157c4.710937.003907 8.527343 3.824219 8.53125 8.535157zm0 0"/><path d="m103.5625 213.332031h-8.53125c-4.714844 0-8.535156 3.820313-8.535156 8.535157 0 4.710937 3.820312 8.53125 8.535156 8.53125h8.53125c4.714844 0 8.535156-3.820313 8.535156-8.53125 0-4.714844-3.820312-8.535157-8.535156-8.535157zm0 0"/><path d="m137.695312 230.398438h102.402344c4.710938 0 8.53125-3.820313 8.53125-8.53125 0-4.714844-3.820312-8.535157-8.53125-8.535157h-102.402344c-4.710937 0-8.53125 3.820313-8.53125 8.535157 0 4.710937 3.820313 8.53125 8.53125 8.53125zm0 0"/></svg>
