<svg fill="#FFFFFF" height="512" viewBox="0 0 60 60" width="512" xmlns="http://www.w3.org/2000/svg"><g id="Page-1" fill="none" fill-rule="evenodd"><g id="013---Line-Dry" fill="rgb(0,0,0)" fill-rule="nonzero" transform="translate(-1)"><path id="Shape" d="m59 3h-8c0-1.65685425-1.3431458-3-3-3h-2c-1.6568542 0-3 1.34314575-3 3h-23c0-1.65685425-1.3431458-3-3-3h-2c-1.6568542 0-3 1.34314575-3 3h-9c-1.1045695 0-2 .8954305-2 2v2c0 1.1045695.8954305 2 2 2h9v5.125l-.893.318c-.6611725.2267816-1.221299.6792732-1.582 1.278l-8.088 13.318c-.66514396 1.082433-.56786037 2.4681211.242 3.447 1.59 1.929 6.788 3.814 12.321 4.523v17.991c0 3.687 9.04 5 17.5 5 10.486 0 16.5-1.822 16.5-5v-18.143c5.091-.825 10.876-2.612 12.319-4.368.8109829-.9785314.909473-2.3646291.245-3.448l-8.086-13.315c-.3407439-.565553-.8610822-1.0006938-1.478-1.236v-5.49h8c1.1045695 0 2-.8954305 2-2v-2c0-1.1045695-.8954305-2-2-2zm-14 0c0-.55228475.4477153-1 1-1h2c.5522847 0 1 .44771525 1 1v12c0 .5522847-.4477153 1-1 1h-2c-.5522847 0-1-.4477153-1-1zm-2 8.641-1.458-.521c-.5462554-.1981041-1.1505334-.1582058-1.666.11-.4849473.2484909-.841547.6912416-.981 1.218-.658 2.423-3.978 4.182-7.9 4.182s-7.237-1.759-7.893-4.174c-.1383527-.5298908-.4958552-.9757687-.983-1.226-.5129057-.2680427-1.1147212-.3086716-1.659-.112l-.46.165v-2.283h23zm0-6.641v2h-23v-2zm-29-2c0-.55228475.4477153-1 1-1h2c.5522847 0 1 .44771525 1 1v12c0 .5522847-.4477153 1-1 1h-2c-.5522847 0-1-.4477153-1-1zm-11 4v-2h9v2zm55.857 23.082c.2190899.3557375.1869034.811578-.08 1.133-.762.928-5.142 2.676-10.777 3.618v-4.833c0-.5522847-.4477153-1-1-1s-1 .4477153-1 1v25c0 .94-3.651 3-14.5 3-11.684 0-15.5-2.231-15.5-3v-25c0-.5522847-.4477153-1-1-1s-1 .4477153-1 1v4.994c-5.625-.752-9.826-2.625-10.781-3.783-.26453429-.3225529-.29429123-.7777536-.074-1.132l8.092-13.324c.1201855-.199627.3078259-.3496684.529-.423l.47-.167c.4685244 1.1118132 1.5574994 1.834776 2.764 1.835h2c1.6568542 0 3-1.3431458 3-3v-1.6l1.175-.428c.9 3.331 4.944 5.658 9.825 5.658s8.921-2.33 9.864-5.63l2.136.765v1.235c0 1.6568542 1.3431458 3 3 3h2c1.0553542-.00277 2.0310273-.5618722 2.567-1.471.0777672.0662601.1451805.1437854.2.23zm.143-23.082h-8v-2h8z"/><path id="Shape" d="m38 42.533c-.6882686-.0019368-1.3286238.352093-1.693.936-.023.037-2.307 3.705-2.307 5.531 0 2.209139 1.790861 4 4 4s4-1.790861 4-4c0-1.826-2.284-5.494-2.308-5.531-.3637773-.5840375-1.0039382-.9381691-1.692-.936zm0 8.467c-1.1045695 0-2-.8954305-2-2 .4037276-1.5939369 1.0803884-3.1059354 2-4.469.9206763 1.3624728 1.5974231 2.8746635 2 4.469 0 1.1045695-.8954305 2-2 2z"/><path id="Shape" d="m25 31.533c-.6882686-.0019368-1.3286238.352093-1.693.936-.023.037-2.307 3.705-2.307 5.531 0 2.209139 1.790861 4 4 4s4-1.790861 4-4c0-1.826-2.284-5.494-2.308-5.531-.3637773-.5840375-1.0039382-.9381691-1.692-.936zm0 8.467c-1.1045695 0-2-.8954305-2-2 .4037276-1.5939369 1.0803884-3.1059354 2-4.469.9206763 1.3624728 1.5974231 2.8746635 2 4.469 0 1.1045695-.8954305 2-2 2z"/></g></g></svg>
