<svg height="512" viewBox="0 0 64 64" width="512" xmlns="http://www.w3.org/2000/svg"><g id="Twotone"><g id="Color_copy" data-name="Color copy"><g><path d="m50 39.5a10.956 10.956 0 0 1 -7.673-3.126 17.9 17.9 0 0 1 -18.208.27 11.973 11.973 0 0 1 -19.1-9.285 11.984 11.984 0 0 0 17.1 16.285 17.9 17.9 0 0 0 18.208-.27 10.994 10.994 0 0 0 18.673-7.874c0-.218-.019-.431-.031-.645a10.982 10.982 0 0 1 -8.969 4.645z" fill="#cff09e"/><path d="m31 51v-10h-14v10h-6l13 10 13-10z" fill="#79bd9a"/><g fill="#a8dba8"><path d="m44 7h14v20h-14z"/><path d="m48 3h6v4h-6z"/></g></g></g><g id="Stroke_close_copy" data-name="Stroke close copy"><g fill="#3b8686"><path d="m60 35.5a11.9 11.9 0 0 0 -2.659-7.5h.659a1 1 0 0 0 1-1v-20a1 1 0 0 0 -1-1h-3v-3a1 1 0 0 0 -1-1h-6a1 1 0 0 0 -1 1v3h-3a1 1 0 0 0 -1 1v6.306a18.761 18.761 0 0 0 -12-4.306 19.015 19.015 0 0 0 -17.694 12.12 13 13 0 0 0 1.694 25.88c.332 0 .666-.016 1-.042v3.042h-5a1 1 0 0 0 -.61 1.792l13 10a1 1 0 0 0 1.22 0l13-10a1 1 0 0 0 -.61-1.792h-5v-3.032a18.94 18.94 0 0 0 8.194-2.361 11.994 11.994 0 0 0 19.806-9.107zm-11-31.5h4v2h-4zm-4 4h12v18h-12zm-10.94 44-10.06 7.738-10.06-7.738h3.06a1 1 0 0 0 1-1v-9h12v9a1 1 0 0 0 1 1zm13.94-6.5a9.94 9.94 0 0 1 -6.975-2.842 1 1 0 0 0 -1.217-.139 16.974 16.974 0 0 1 -7.808 2.446v-3.965a1 1 0 0 0 -1-1h-14a1 1 0 0 0 -1 1v3.95c-.334.031-.668.05-1 .05a11 11 0 0 1 -.892-21.955 1 1 0 0 0 .864-.665 17.013 17.013 0 0 1 16.028-11.38 16.814 16.814 0 0 1 12 5v11a1 1 0 0 0 1 1h10.567a9.971 9.971 0 0 1 -6.567 17.5z"/><path d="m45 38h-3.229l3.87-3.232a.994.994 0 0 0 .344-.9 4 4 0 0 0 -3.985-3.868 4.18 4.18 0 0 0 -3.055 1.354 3.531 3.531 0 0 0 -.927 2.748 1 1 0 0 0 1.99-.2 1.547 1.547 0 0 1 .422-1.2 2.147 2.147 0 0 1 1.57-.702 1.994 1.994 0 0 1 1.943 1.58l-5.571 4.652a1 1 0 0 0 .641 1.768h5.987a1 1 0 0 0 0-2z"/><path d="m32 22a5.006 5.006 0 0 0 -5 5v4a5 5 0 0 0 10 0v-4a5.006 5.006 0 0 0 -5-5zm3 9a3 3 0 0 1 -6 0v-4a3 3 0 0 1 6 0z"/><path d="m20 24a3 3 0 0 1 3 3 1 1 0 0 0 2 0 5 5 0 0 0 -10 0v4a5 5 0 0 0 10 0 1 1 0 0 0 -2 0 3 3 0 0 1 -6 0v-4a3 3 0 0 1 3-3z"/><path d="m53 16h-2.382l1.282-2.553a1 1 0 1 0 -1.79-.894l-2 4a1 1 0 0 0 .89 1.447h2.382l-1.277 2.553a1 1 0 0 0 1.79.894l2-4a1 1 0 0 0 -.895-1.447z"/><path d="m47 50a1 1 0 0 0 -1 1v5a1 1 0 0 0 2 0v-5a1 1 0 0 0 -1-1z"/><path d="m56 47a1 1 0 0 0 -1 1v3a1 1 0 0 0 2 0v-3a1 1 0 0 0 -1-1z"/><path d="m6 47a1 1 0 0 0 -1 1v3a1 1 0 0 0 2 0v-3a1 1 0 0 0 -1-1z"/><path d="m10 56a1 1 0 0 0 -1 1v3a1 1 0 0 0 2 0v-3a1 1 0 0 0 -1-1z"/><path d="m4 15h2.131l-.963 1.445a1 1 0 0 0 1.664 1.11l2-3a1 1 0 0 0 -.832-1.555h-2.131l.963-1.445a1 1 0 1 0 -1.664-1.11l-2 3a1 1 0 0 0 .832 1.555z"/><path d="m17 7h2.131l-.963 1.445a1 1 0 0 0 1.664 1.11l2-3a1 1 0 0 0 -.832-1.555h-2.131l.963-1.445a1 1 0 0 0 -1.664-1.11l-2 3a1 1 0 0 0 .832 1.555z"/></g></g></g></svg>