<svg fill="#FFFFFF" id="Outline_expand" height="512" viewBox="0 0 512 512" width="512" xmlns="http://www.w3.org/2000/svg" data-name="Outline expand"><g id="_19_copy_3" data-name="19 copy 3"><g><path d="m32 464h264v-16h-120v-128a8 8 0 0 0 -8-8h-96a8 8 0 0 0 -8 8v128h-16v-32h-16v32h-8a8 8 0 0 0 -8 8v32a8 8 0 0 0 8 8h304v-16h-296zm96-136h32v120h-32zm-48 0h32v120h-32z"/><path d="m432 120a40 40 0 1 0 -40-40 40.045 40.045 0 0 0 40 40zm0-64a24 24 0 1 1 -24 24 24.028 24.028 0 0 1 24-24z"/><path d="m424 16h16v16h-16z"/><path d="m424 128h16v16h-16z"/><path d="m384.402 32.402h16v16h-16z" transform="matrix(.707 -.707 .707 .707 86.369 289.31)"/><path d="m463.598 111.598h16v16h-16z" transform="matrix(.707 -.707 .707 .707 53.565 368.509)"/><path d="m463.598 32.402h16v16h-16z" transform="matrix(.707 -.707 .707 .707 109.546 345.288)"/><path d="m384.402 111.598h16v16h-16z" transform="matrix(.707 -.707 .707 .707 30.359 312.492)"/><path d="m368 72h16v16h-16z"/><path d="m480 72h16v16h-16z"/><path d="m24 280h8v120h16v-120h360a8 8 0 0 0 8-8v-16a8.017 8.017 0 0 0 -.533-2.872l-40-104a8 8 0 0 0 -7.467-5.128h-16v-8a8 8 0 0 0 -8-8h-96a8 8 0 0 0 -8 8v8h-79.37l-18.609-21.268a8 8 0 0 0 -12.042 0l-35 40 12.042 10.536 28.979-33.12 104 118.858v4.994h-208v-4.994l61.021-69.738-12.042-10.536-63 72a8 8 0 0 0 -1.979 5.268v16a8 8 0 0 0 8 8zm280-72h-16v-24h16zm-32 0h-16v-24h16zm48-24h16v24h-16zm16-16h-16v-24h16zm-32 0h-16v-24h16zm-48-24h16v24h-16zm-81.37 16h65.37v56a8 8 0 0 0 8 8h96a8 8 0 0 0 8-8v-56h10.5l37.5 97.485v6.515h-144v-8a8 8 0 0 0 -1.979-5.268z"/><path d="m104 288h32v16h-32z"/><path d="m24 144h56a32.122 32.122 0 0 0 23.321-10.089 32 32 0 0 0 -45.233-45.232 32.129 32.129 0 0 0 -9.064 15.321h-5.024a28.032 28.032 0 0 0 -28 28v4a8 8 0 0 0 8 8zm20-24h12a8 8 0 0 0 8-8 16 16 0 0 1 17.036-15.968 16.177 16.177 0 0 1 14.932 14.933 16 16 0 0 1 -15.968 17.035h-47.314a12.02 12.02 0 0 1 11.314-8z"/><path d="m232 96h56a32.122 32.122 0 0 0 23.321-10.089 32 32 0 0 0 -45.233-45.232 32.129 32.129 0 0 0 -9.064 15.321h-5.024a28.032 28.032 0 0 0 -28 28v4a8 8 0 0 0 8 8zm20-24h12a8 8 0 0 0 8-8 16 16 0 0 1 17.036-15.968 16.177 16.177 0 0 1 14.932 14.933 16 16 0 0 1 -15.968 17.035h-47.314a12.02 12.02 0 0 1 11.314-8z"/><path d="m136 184a24.027 24.027 0 0 0 -24 24v24h-16v16h80v-16h-16v-24a24.027 24.027 0 0 0 -24-24zm8 48h-16v-24a8 8 0 0 1 16 0z"/><path d="m389.682 455.656a7.99 7.99 0 0 0 8.974-3.218l48-72a8 8 0 0 0 -6.656-12.438h-24v-32a8 8 0 0 0 -14.021-5.268l-56 64a8 8 0 0 0 6.021 13.268h32v40a8 8 0 0 0 5.682 7.656zm-20.052-63.656 30.37-34.708v18.708a8 8 0 0 0 8 8h17.052l-25.052 37.578v-21.578a8 8 0 0 0 -8-8z"/><path d="m494.566 348.663-14.541 6.674a88.016 88.016 0 1 1 -80.025-51.337 88.29 88.29 0 0 1 71.489 36.672l12.989-9.344a103.95 103.95 0 0 0 -164.478-5.71v-5.618a8 8 0 0 0 -8-8h-112a8 8 0 0 0 -8 8v104a8 8 0 0 0 8 8h104a104.011 104.011 0 1 0 190.566-83.337zm-246.566 67.337h-40v-88h40zm56-64a104.161 104.161 0 0 0 -5.2 64h-34.8v-88h40z"/></g></g></svg>
