<?xml version="1.0"?>
<svg fill="#FFFFFF" xmlns="http://www.w3.org/2000/svg" id="outline" viewBox="0 0 64 64" width="512" height="512"><path d="M46,2H13.069a1,1,0,0,0-1,.916,244.507,244.507,0,0,0-.783,27.363c.3,10.231.9,20.6,1.783,30.808a1,1,0,0,0,1,.913h24a1,1,0,0,0,1-.913c.321-3.681.605-7.4.845-11.05a1,1,0,0,0-2-.131c-.046.694-.1,1.4-.148,2.094H14.37c-.508-7.259-.872-14.552-1.08-21.778Q13.2,27.133,13.2,24h25.74q0,3.13-.091,6.221c-.114,3.933-.272,7.889-.47,11.759a1,1,0,0,0,.948,1.05,1.027,1.027,0,0,0,1.05-.948c.2-3.884.357-7.855.472-11.8C41.057,23,40.9,15.528,40.422,8h4.852A1.158,1.158,0,0,1,46.4,9.424a62.024,62.024,0,0,0,.2,29.117,3.246,3.246,0,0,0,6.4-.787V9A7.009,7.009,0,0,0,46,2ZM37.625,54q-.222,3-.474,6H14.987c-.17-1.994-.321-4-.468-6Zm1.3-32h-25.7q.024-3.482.152-7h25.4Q38.894,18.518,38.92,22ZM38.148,4c.242,3.01.408,6.009.539,9H13.451c.132-2.991.3-5.99.539-9ZM51,37.754a1.247,1.247,0,0,1-2.456.3A60,60,0,0,1,48.35,9.882,3.16,3.16,0,0,0,45.274,6H40.282c-.048-.667-.087-1.333-.14-2H46a5.006,5.006,0,0,1,5,5Z"/><circle cx="39.069" cy="46" r="1"/></svg>
